<svg class="svg-icon" style="vertical-align: middle;overflow: hidden;" viewBox="0 0 1024 1024" version="1.1" xmlns="http://www.w3.org/2000/svg"><path d="M547.980469 752.428861l-58.488089 58.488089c-3.705392 3.706415-9.767458 3.706415-13.473873 0s-3.706415-9.773598 0-13.477966l58.483996-58.488089c3.706415-3.706415 9.773598-3.706415 13.477966 0 3.705392 3.704368 3.705392 9.773598 0 13.477966z"  /><path d="M511.998977 844.031139c-18.187221 0-35.994796-7.375991-48.855708-20.237927-12.860912-12.860912-20.23895-30.671557-20.23895-48.860824 0-18.188244 7.375991-35.994796 20.23895-48.855708 12.859889-12.860912 30.667463-20.237927 48.855708-20.237927s35.995819 7.375991 48.855708 20.237927c12.860912 12.859889 20.237927 30.66951 20.237926 48.855708 0 18.192338-7.375991 36.000935-20.237926 48.860824-12.861936 12.861936-30.668487 20.237927-48.855708 20.237927z m0-130.714064c-16.219403 0-32.099069 6.576789-43.566238 18.047028-11.470239 11.470239-18.048051 27.349905-18.048052 43.568285 0 16.222473 6.578836 32.103162 18.047028 43.573401 11.470239 11.469216 27.349905 18.047028 43.568285 18.047028s32.098046-6.576789 43.568285-18.047028c11.469216-11.469216 18.047028-27.350928 18.047028-43.573401 0-16.219403-6.576789-32.099069-18.047028-43.568285-11.471262-11.469216-27.349905-18.047028-43.569308-18.047028zM689.7401 314.967508c-49.369408 0-115.317399-9.797134-203.226564-37.213553-121.286344-37.82549-205.196429-5.594415-254.228145 28.106128l-4.236488-6.163373c30.189579-20.751626 64.147996-34.745339 100.932783-41.593304 49.717332-9.254781 103.46649-5.047969 159.758564 12.510941 80.418564 25.080212 149.509129 37.453007 205.29876 36.776602 40.666188-0.493234 73.616648-7.806803 97.933473-21.736047l3.717671 6.489808c-21.515013 12.323677-54.852282 22.822798-105.950054 22.822798z"  /><path d="M669.067268 947.106726h-7.66047c-20.330024 0-36.867676-16.538675-36.867676-36.867676v-21.337981h-225.086431v21.337981c0 20.330024-16.538675 36.867676-36.867676 36.867676h-7.655353c-20.329001 0-36.867676-16.538675-36.867676-36.867676v-27.875884c-55.66888-18.010189-94.128821-70.406536-94.128821-129.110543v-66.328661c0-10.389628 7.484462-19.062148 17.34504-20.909216V537.790386a29.04143 29.04143 0 0 1-17.34504-26.63052v-220.849944h12.465916v220.849944a16.591887 16.591887 0 0 0 12.612249 16.140608l4.733815 1.172709v149.640112h-8.536421c-4.856611 0-8.80862 3.952009-8.808619 8.807597v66.328661c0 54.801117 36.919864 103.549378 89.781816 118.549l5.057179 1.434675-0.560772 5.226025a25.335015 25.335015 0 0 0-0.148379 2.674922v29.101805c0 13.45443 10.946306 24.400736 24.400736 24.400736h7.655354c13.45443 0 24.400736-10.946306 24.400736-24.400736v-33.80492h250.019287v33.80492c0 13.45443 10.946306 24.400736 24.400736 24.400736h7.66047c13.45443 0 24.400736-10.946306 24.400737-24.400736v-29.101805c0-0.853437-0.051165-1.74576-0.152473-2.650363l-0.583284-5.244444 5.076622-1.440815c52.865022-14.999622 89.786932-63.748906 89.786932-118.549v-66.328661c0-4.856611-3.952009-8.807596-8.80862-8.807597h-8.53642v-149.638065l4.731768-1.172709a16.598027 16.598027 0 0 0 12.613272-16.142655V276.431843h12.465916v234.728023a29.040407 29.040407 0 0 1-17.34504 26.628474V666.011676c9.859555 1.849114 17.34504 10.521634 17.34504 20.909216v66.328661c0 58.700937-38.46301 111.094214-94.128821 129.107473v27.877931c0.002047 20.333094-16.535605 36.871769-36.865629 36.871769z"  /><path d="M287.276842 521.776667c-7.015787 0-12.756535 5.740748-12.756535 12.756535v139.526777c0 7.015787 5.740748 12.756535 12.756535 12.756535h449.445292c7.015787 0 12.756535-5.740748 12.756535-12.756535V534.533202c0-7.015787-5.740748-12.756535-12.756535-12.756535H287.276842zM738.882334 664.08786c0 7.015787-5.740748 12.756535-12.756535 12.756535h-428.253644c-7.015787 0-12.756535-5.740748-12.756535-12.756535V544.506345c0-7.015787 5.740748-12.756535 12.756535-12.756535h428.253644c7.015787 0 12.756535 5.740748 12.756535 12.756535V664.08786zM236.400105 291.517423H223.934189v-46.264696c0-79.319533 64.533782-143.851269 143.856385-143.851269h92.591815c2.732228-13.950733 15.051811-24.508183 29.79049-24.508184h43.651172c14.739702 0 27.060309 10.55745 29.792537 24.508184h92.588745c79.323627 0 143.856385 64.531735 143.856385 143.851269v33.012881h-12.465916v-33.012881c0-72.445986-58.941414-131.385353-131.390469-131.385353h-97.874122a6.624884 6.624884 0 0 1-6.616697-6.618745c0-9.864672-8.025791-17.890462-17.892509-17.890462h-43.651173c-9.864672 0-17.890462 8.025791-17.890462 17.890462a6.626931 6.626931 0 0 1-6.617721 6.618745H367.790574c-72.449056 0-131.390469 58.939367-131.390469 131.385353v46.264696z"  /><path d="M689.750333 282.074354c-49.362244 0.001023-115.305119-9.790994-203.231681-37.211507-120.925117-37.708833-204.679659-5.745864-253.652024 27.708062a4.115738 4.115738 0 0 1-6.438642-3.40454h7.479345a3.349281 3.349281 0 0 0-1.781576-2.963495 3.351328 3.351328 0 0 0-3.456729 0.178056c30.178323-20.61655 64.120366-34.505885 100.861153-41.268916 49.560766-9.122775 103.127775-4.880147 159.215188 12.612249 80.301907 25.042349 149.289118 37.438681 205.056236 36.777625 40.660048-0.464581 73.617671-7.737218 97.962125-21.617344a3.354398 3.354398 0 0 0-1.673105 2.902097h7.479345a4.133134 4.133134 0 0 1-2.095732 3.591804c-21.48943 12.257162-54.771441 22.694885-105.723903 22.695909z"  /></svg>